<svg width="171" height="149" viewBox="0 0 171 149" fill="none" xmlns="http://www.w3.org/2000/svg">
<path d="M143.939 63.749V138.124C143.939 139.533 143.38 140.884 142.384 141.881C141.387 142.877 140.036 143.437 138.627 143.437H32.377C30.968 143.437 29.6167 142.877 28.6205 141.881C27.6242 140.884 27.0645 139.533 27.0645 138.124V63.749C27.0645 62.3401 27.6242 60.9888 28.6205 59.9925C29.6167 58.9962 30.968 58.4365 32.377 58.4365H138.627C140.036 58.4365 141.387 58.9962 142.384 59.9925C143.38 60.9888 143.939 62.3401 143.939 63.749Z" fill="#0A58EB"/>
<path d="M106.7 83.6V96.2C106.7 108.062 100.958 115.251 96.1407 119.193C90.9522 123.436 85.7907 124.878 85.5657 124.937C85.2563 125.021 84.9301 125.021 84.6207 124.937C84.3957 124.878 79.241 123.436 74.0457 119.193C69.242 115.251 63.5 108.062 63.5 96.2V83.6C63.5 82.6452 63.8793 81.7295 64.5544 81.0544C65.2295 80.3793 66.1452 80 67.1 80H103.1C104.055 80 104.97 80.3793 105.645 81.0544C106.321 81.7295 106.7 82.6452 106.7 83.6Z" fill="white"/>
<path d="M96.311 95.5225L84.2735 107.56C83.9922 107.841 83.6109 107.999 83.2132 107.999C82.8156 107.999 82.4342 107.841 82.1529 107.56L75.4385 100.81C75.1577 100.529 75 100.148 75 99.7502C75 99.3527 75.1577 98.9716 75.4385 98.6903L77.3135 96.8153C77.5946 96.5354 77.9752 96.3782 78.372 96.3782C78.7687 96.3782 79.1493 96.5354 79.4304 96.8153L83.2507 100.52L92.322 91.5606C92.6031 91.2804 92.9839 91.123 93.3809 91.123C93.7778 91.123 94.1586 91.2804 94.4398 91.5606L96.3101 93.3925C96.4507 93.5319 96.5624 93.6977 96.6386 93.8805C96.7149 94.0633 96.7542 94.2593 96.7543 94.4573C96.7543 94.6553 96.7152 94.8514 96.6391 95.0342C96.5631 95.2171 96.4516 95.383 96.311 95.5225Z" fill="#0A58EB"/>
<path d="M138.631 53.1211H117.381V37.1836C117.381 28.7298 114.023 20.6223 108.045 14.6446C102.067 8.66684 93.9596 5.30859 85.5059 5.30859C77.0521 5.30859 68.9446 8.66684 62.9668 14.6446C56.9891 20.6223 53.6309 28.7298 53.6309 37.1836V53.1211H32.3809C29.5629 53.1211 26.8604 54.2405 24.8678 56.2331C22.8753 58.2257 21.7559 60.9282 21.7559 63.7461V138.121C21.7559 140.939 22.8753 143.642 24.8678 145.634C26.8604 147.627 29.5629 148.746 32.3809 148.746H138.631C141.449 148.746 144.151 147.627 146.144 145.634C148.136 143.642 149.256 140.939 149.256 138.121V63.7461C149.256 60.9282 148.136 58.2257 146.144 56.2331C144.151 54.2405 141.449 53.1211 138.631 53.1211ZM64.2559 37.1836C64.2559 31.5477 66.4947 26.1427 70.4798 22.1576C74.465 18.1724 79.87 15.9336 85.5059 15.9336C91.1417 15.9336 96.5467 18.1724 100.532 22.1576C104.517 26.1427 106.756 31.5477 106.756 37.1836V53.1211H64.2559V37.1836ZM138.631 138.121H32.3809V63.7461H138.631V138.121Z" fill="#0A58EB"/>
</svg>
