<svg width="250" height="153" viewBox="0 0 250 153" fill="none" xmlns="http://www.w3.org/2000/svg">
<path d="M190.757 12.8963V55.5364C190.757 95.6791 171.326 120.007 155.023 133.347C137.465 147.708 119.997 152.588 119.236 152.786C118.189 153.071 117.085 153.071 116.038 152.786C115.277 152.588 97.8322 147.708 80.2508 133.347C63.9942 120.007 44.5625 95.6791 44.5625 55.5364V12.8963C44.5625 9.66517 45.8461 6.5664 48.1308 4.28167C50.4155 1.99693 53.5143 0.713379 56.7454 0.713379H178.574C181.805 0.713379 184.904 1.99693 187.189 4.28167C189.474 6.5664 190.757 9.66517 190.757 12.8963Z" fill="#0A58EB"/>
<g clip-path="url(#clip0_982_2610)">
<rect x="35.0918" y="12.6182" width="165.133" height="23.3816" rx="5.37777" fill="white"/>
<path d="M74.6728 20.4194L75.6937 22.2344L72.5855 23.3915L75.6937 24.5486L74.6501 26.4089L72.0637 24.3671L72.5402 27.6567H70.4529L70.884 24.3671L68.2976 26.4543L67.2086 24.5259L70.2941 23.3688L67.2086 22.2571L68.2522 20.3968L70.9067 22.4386L70.4529 19.1263H72.5628L72.0637 22.4386L74.6728 20.4194ZM86.1051 20.4194L87.1261 22.2344L84.0179 23.3915L87.1261 24.5486L86.0824 26.4089L83.4961 24.3671L83.9725 27.6567H81.8853L82.3163 24.3671L79.73 26.4543L78.641 24.5259L81.7264 23.3688L78.641 22.2571L79.6846 20.3968L82.339 22.4386L81.8853 19.1263H83.9952L83.4961 22.4386L86.1051 20.4194ZM97.5375 20.4194L98.5584 22.2344L95.4502 23.3915L98.5584 24.5486L97.5148 26.4089L94.9284 24.3671L95.4049 27.6567H93.3176L93.7487 24.3671L91.1623 26.4543L90.0733 24.5259L93.1588 23.3688L90.0733 22.2571L91.1169 20.3968L93.7714 22.4386L93.3176 19.1263H95.4275L94.9284 22.4386L97.5375 20.4194ZM108.97 20.4194L109.991 22.2344L106.883 23.3915L109.991 24.5486L108.947 26.4089L106.361 24.3671L106.837 27.6567H104.75L105.181 24.3671L102.595 26.4543L101.506 24.5259L104.591 23.3688L101.506 22.2571L102.549 20.3968L105.204 22.4386L104.75 19.1263H106.86L106.361 22.4386L108.97 20.4194ZM120.402 20.4194L121.423 22.2344L118.315 23.3915L121.423 24.5486L120.379 26.4089L117.793 24.3671L118.27 27.6567H116.182L116.613 24.3671L114.027 26.4543L112.938 24.5259L116.023 23.3688L112.938 22.2571L113.982 20.3968L116.636 22.4386L116.182 19.1263H118.292L117.793 22.4386L120.402 20.4194ZM131.835 20.4194L132.855 22.2344L129.747 23.3915L132.855 24.5486L131.812 26.4089L129.225 24.3671L129.702 27.6567H127.615L128.046 24.3671L125.459 26.4543L124.37 24.5259L127.456 23.3688L124.37 22.2571L125.414 20.3968L128.068 22.4386L127.615 19.1263H129.725L129.225 22.4386L131.835 20.4194ZM143.267 20.4194L144.288 22.2344L141.18 23.3915L144.288 24.5486L143.244 26.4089L140.658 24.3671L141.134 27.6567H139.047L139.478 24.3671L136.892 26.4543L135.803 24.5259L138.888 23.3688L135.803 22.2571L136.846 20.3968L139.501 22.4386L139.047 19.1263H141.157L140.658 22.4386L143.267 20.4194ZM154.699 20.4194L155.72 22.2344L152.612 23.3915L155.72 24.5486L154.677 26.4089L152.09 24.3671L152.567 27.6567H150.479L150.91 24.3671L148.324 26.4543L147.235 24.5259L150.321 23.3688L147.235 22.2571L148.279 20.3968L150.933 22.4386L150.479 19.1263H152.589L152.09 22.4386L154.699 20.4194ZM166.132 20.4194L167.152 22.2344L164.044 23.3915L167.152 24.5486L166.109 26.4089L163.523 24.3671L163.999 27.6567H161.912L162.343 24.3671L159.756 26.4543L158.667 24.5259L161.753 23.3688L158.667 22.2571L159.711 20.3968L162.365 22.4386L161.912 19.1263H164.022L163.523 22.4386L166.132 20.4194Z" fill="black"/>
<g clip-path="url(#clip1_982_2610)">
<path d="M192.645 21.7662H190.514V20.1679C190.514 19.3201 190.177 18.507 189.578 17.9075C188.978 17.308 188.165 16.9712 187.317 16.9712C186.469 16.9712 185.656 17.308 185.057 17.9075C184.457 18.507 184.121 19.3201 184.121 20.1679V21.7662H181.989C181.707 21.7662 181.436 21.8785 181.236 22.0783C181.036 22.2782 180.924 22.5492 180.924 22.8318V30.2908C180.924 30.5734 181.036 30.8444 181.236 31.0442C181.436 31.2441 181.707 31.3563 181.989 31.3563H192.645C192.928 31.3563 193.199 31.2441 193.399 31.0442C193.598 30.8444 193.711 30.5734 193.711 30.2908V22.8318C193.711 22.5492 193.598 22.2782 193.399 22.0783C193.199 21.8785 192.928 21.7662 192.645 21.7662ZM185.186 20.1679C185.186 19.6027 185.411 19.0606 185.81 18.661C186.21 18.2613 186.752 18.0368 187.317 18.0368C187.882 18.0368 188.424 18.2613 188.824 18.661C189.224 19.0606 189.448 19.6027 189.448 20.1679V21.7662H185.186V20.1679Z" fill="url(#paint0_linear_982_2610)"/>
<g clip-path="url(#clip2_982_2610)">
<path d="M190.768 25.0415L187.449 28.3601C187.372 28.4376 187.266 28.4811 187.157 28.4811C187.047 28.4811 186.942 28.4376 186.865 28.3601L185.013 26.4992C184.936 26.4217 184.893 26.3166 184.893 26.207C184.893 26.0974 184.936 25.9923 185.013 25.9148L185.53 25.3979C185.608 25.3207 185.713 25.2774 185.822 25.2774C185.932 25.2774 186.036 25.3207 186.114 25.3979L187.167 26.4193L189.668 23.9493C189.746 23.872 189.851 23.8286 189.96 23.8286C190.069 23.8286 190.174 23.872 190.252 23.9493L190.767 24.4543C190.806 24.4927 190.837 24.5384 190.858 24.5888C190.879 24.6392 190.89 24.6932 190.89 24.7478C190.89 24.8024 190.879 24.8565 190.858 24.9069C190.837 24.9573 190.807 25.003 190.768 25.0415Z" fill="white"/>
</g>
</g>
</g>
<rect x="35.9881" y="13.5145" width="163.34" height="21.589" rx="4.48147" stroke="url(#paint1_linear_982_2610)" stroke-width="1.79259"/>
<path d="M96.6216 75.9209C96.2842 75.2992 95.7957 74.8285 95.1563 74.5088C94.5347 74.1714 93.7976 74.0026 92.945 74.0026C91.4708 74.0026 90.2897 74.4911 89.4017 75.468C88.5136 76.4271 88.0696 77.7148 88.0696 79.331C88.0696 81.0539 88.5314 82.4037 89.4549 83.3806C90.3963 84.3397 91.684 84.8193 93.318 84.8193C94.437 84.8193 95.3783 84.5351 96.1421 83.9667C96.9236 83.3984 97.4919 82.5813 97.8471 81.5157H92.0659V78.1588H101.977V82.3949C101.639 83.5316 101.062 84.5884 100.245 85.5652C99.4457 86.5421 98.4244 87.3325 97.1811 87.9364C95.9378 88.5403 94.5347 88.8422 92.9717 88.8422C91.1245 88.8422 89.4727 88.4426 88.0163 87.6433C86.5776 86.8263 85.4498 85.6984 84.6328 84.2598C83.8335 82.8211 83.4339 81.1782 83.4339 79.331C83.4339 77.4839 83.8335 75.8409 84.6328 74.4023C85.4498 72.9459 86.5776 71.818 88.0163 71.0188C89.4549 70.2017 91.0979 69.7932 92.945 69.7932C95.183 69.7932 97.0657 70.3349 98.5931 71.4184C100.138 72.5018 101.16 74.0026 101.657 75.9209H96.6216ZM111.507 70.0064C113.478 70.0064 115.201 70.3971 116.675 71.1786C118.15 71.9601 119.286 73.0613 120.086 74.4822C120.903 75.8853 121.311 77.5105 121.311 79.3577C121.311 81.1871 120.903 82.8122 120.086 84.2331C119.286 85.654 118.141 86.7552 116.649 87.5367C115.175 88.3182 113.461 88.709 111.507 88.709H104.5V70.0064H111.507ZM111.214 84.766C112.937 84.766 114.278 84.2953 115.237 83.354C116.196 82.4126 116.675 81.0805 116.675 79.3577C116.675 77.6348 116.196 76.2939 115.237 75.3347C114.278 74.3756 112.937 73.8961 111.214 73.8961H109.056V84.766H111.214ZM138.111 76.0274C138.111 77.1109 137.862 78.1055 137.365 79.0113C136.867 79.8994 136.104 80.6187 135.073 81.1693C134.043 81.7199 132.764 81.9952 131.237 81.9952H128.413V88.709H123.857V70.0064H131.237C132.729 70.0064 133.99 70.2639 135.02 70.779C136.05 71.2941 136.823 72.0045 137.338 72.9103C137.853 73.8162 138.111 74.8552 138.111 76.0274ZM130.891 78.3719C131.761 78.3719 132.409 78.1677 132.835 77.7592C133.262 77.3506 133.475 76.7734 133.475 76.0274C133.475 75.2815 133.262 74.7042 132.835 74.2957C132.409 73.8872 131.761 73.6829 130.891 73.6829H128.413V78.3719H130.891ZM150.02 88.709L146.13 81.6489H145.038V88.709H140.482V70.0064H148.129C149.603 70.0064 150.855 70.2639 151.885 70.779C152.933 71.2941 153.714 72.0045 154.23 72.9103C154.745 73.7984 155.002 74.793 155.002 75.8942C155.002 77.1375 154.647 78.2476 153.936 79.2245C153.244 80.2013 152.214 80.894 150.846 81.3025L155.162 88.709H150.02ZM145.038 78.4252H147.862C148.697 78.4252 149.319 78.221 149.727 77.8124C150.153 77.4039 150.366 76.8267 150.366 76.0807C150.366 75.3703 150.153 74.8108 149.727 74.4023C149.319 73.9938 148.697 73.7895 147.862 73.7895H145.038V78.4252Z" fill="white"/>
<defs>
<linearGradient id="paint0_linear_982_2610" x1="187.317" y1="16.9712" x2="187.317" y2="31.3563" gradientUnits="userSpaceOnUse">
<stop stop-color="#179DFF"/>
<stop offset="1" stop-color="#1754FF"/>
</linearGradient>
<linearGradient id="paint1_linear_982_2610" x1="200.224" y1="24.309" x2="35.0918" y2="24.309" gradientUnits="userSpaceOnUse">
<stop stop-color="#0872FC" stop-opacity="0.7"/>
<stop offset="1" stop-color="#21C8F6" stop-opacity="0.25"/>
</linearGradient>
<clipPath id="clip0_982_2610">
<rect x="35.0918" y="12.6182" width="165.133" height="23.3816" rx="5.37777" fill="white"/>
</clipPath>
<clipPath id="clip1_982_2610">
<rect width="17.049" height="17.049" fill="white" transform="translate(178.795 16.4409)"/>
</clipPath>
<clipPath id="clip2_982_2610">
<rect width="6.6165" height="6.6165" fill="white" transform="translate(184.475 22.6919)"/>
</clipPath>
</defs>
</svg>
