<svg width="311" height="157" viewBox="0 0 311 157" fill="none" xmlns="http://www.w3.org/2000/svg">
<g clip-path="url(#clip0_982_2621)">
<path d="M155.903 27.0723C190.782 27.1054 219.028 55.4066 218.995 90.2856C218.962 125.165 190.66 153.411 155.781 153.378C120.947 153.344 92.7152 125.109 92.6895 90.2709C92.6564 55.3993 120.895 27.1054 155.767 27.0723C155.811 27.0723 155.855 27.0723 155.903 27.0723ZM134.672 122.652C148.365 117.785 163.319 117.781 177.016 122.645L178.984 115.239C179.893 115.239 180.724 115.217 181.563 115.247C182.427 115.177 183.295 115.224 184.145 115.397C183.553 118.469 182.806 121.512 181.901 124.506C184.234 125.794 186.551 126.96 188.755 128.314C190.958 129.664 193.044 131.187 195.174 132.633C220.779 109.169 219.182 69.2611 195.075 47.762C191.006 50.9626 186.573 53.6739 181.868 55.8334C182.762 59.0008 183.615 62.0359 184.178 65.1666H178.936C178.616 63.9047 178.325 62.6981 178.005 61.5025C177.729 60.2517 177.365 59.0266 176.909 57.831C163.246 62.6723 148.332 62.665 134.672 57.8089L132.697 65.2365C131.788 65.2365 130.949 65.2401 130.114 65.2365C129.261 65.2291 128.407 65.2144 127.392 65.1997L129.772 55.8076C125.078 53.6555 120.66 50.9516 116.609 47.7436C91.1664 70.946 92.237 110.85 116.609 132.684C120.689 129.48 125.129 126.765 129.838 124.598C128.893 121.534 128.109 118.418 127.495 115.272H132.723L134.672 122.652ZM175.202 52.9013C175.173 52.6953 175.128 52.493 175.073 52.2907C173.469 47.968 171.269 43.8919 168.543 40.1763C166.789 37.7372 164.574 35.6623 162.024 34.0694C158.467 31.7628 153.924 31.6377 150.245 33.7457C147.879 35.0737 145.793 36.8469 144.105 38.9696C141.39 42.3247 139.179 46.0587 137.534 50.0502C137.148 50.9442 136.795 51.8529 136.383 52.8609C148.931 57.3638 162.65 57.3785 175.202 52.9013ZM136.446 127.549C136.534 127.85 136.571 128.027 136.633 128.189C138.13 132.199 140.132 135.999 142.589 139.505C144.197 141.819 146.165 143.864 148.42 145.556C153.155 149.011 158.29 149.055 163.073 145.689C164.71 144.519 166.189 143.139 167.473 141.591C170.74 137.548 173.315 132.99 175.092 128.104C175.143 127.916 175.176 127.725 175.195 127.534C162.661 123.075 148.976 123.082 136.446 127.549ZM170.614 146.127C178.035 144.258 184.991 140.877 191.039 136.19C187.717 133.608 184.112 131.411 180.297 129.642C178.848 132.596 177.516 135.476 176.037 138.28C174.51 141.076 172.693 143.706 170.614 146.127ZM141.129 146.149C139.032 143.757 137.203 141.138 135.68 138.342C134.172 135.517 132.844 132.6 131.394 129.638C127.576 131.411 123.967 133.608 120.645 136.19C126.715 140.881 133.686 144.272 141.129 146.149ZM180.106 50.786C182.898 49.8442 189.903 45.5032 190.878 44.12C184.855 39.4846 177.943 36.1406 170.57 34.2938C174.827 39.1683 177.744 44.7785 180.106 50.786ZM141.026 34.3343C133.646 36.1884 126.726 39.5509 120.704 44.2046C122.867 46.2169 129.562 50.2342 131.608 50.7419C133.8 44.7822 136.983 39.2345 141.026 34.3343Z" fill="#0A58EB"/>
<path d="M155.181 0.584961L156.792 7.15903L157.028 7.15535L158.812 0.687968H163.219V11.8643H160.486V3.95109C159.493 6.50788 158.893 9.17135 158.08 11.8275H155.564L153.618 3.78554L153.386 3.7929C153.375 4.44406 153.36 5.09521 153.353 5.74636C153.345 6.39751 153.342 7.06338 153.334 7.72189C153.327 8.41719 153.338 9.11249 153.309 9.80779C153.279 10.4553 153.206 11.1027 153.143 11.8495L150.711 11.7171C150.472 10.9188 150.48 2.26987 150.715 0.584961H155.181Z" fill="#0A58EB"/>
<path d="M212.203 35.734L209.812 33.5929L210.787 26.3198L210.595 26.2389L206.571 30.6461L204.209 28.4683L211.809 20.0879L214.168 22.2878L213.156 29.5719L213.336 29.6712L217.409 25.2272L219.807 27.3757L212.203 35.734Z" fill="#0A58EB"/>
<path d="M108.18 21.4222L104.7 16.6838L107.275 14.7524L113.989 23.8318L111.406 25.7742L104.211 23.2763C105.439 25.1341 106.694 26.6645 107.878 28.3531L105.307 30.2734L98.582 21.1941L101.165 19.2811L107.992 21.6466L108.18 21.4222Z" fill="#0A58EB"/>
<path d="M238.646 94.5647C237.358 96.0178 236.206 96.7315 233.543 97.7027V93.9908L237.122 92.1587C237.682 91.9601 238.112 91.5002 238.278 90.9263C238.296 90.7056 238.3 90.4849 238.281 90.2604H233.823C233.705 89.1126 233.701 87.9575 233.808 86.8097C237.571 86.6773 241.265 87.0451 245.036 86.9973C245.036 88.101 245.054 89.0795 245.032 90.0581C245.003 91.2648 244.936 92.4677 244.881 93.6707C244.87 93.8878 244.866 94.1085 244.833 94.3255C244.594 95.9663 243.719 96.9191 242.317 97.0663C240.772 97.3937 239.238 96.4777 238.789 94.9657C238.749 94.8443 238.704 94.7155 238.646 94.5647ZM242.207 93.5052C242.814 92.6259 242.898 91.9858 242.615 90.4554L240.555 90.3193C240.308 90.9741 240.257 91.6841 240.411 92.3684C240.643 93.542 240.919 93.7259 242.207 93.5052Z" fill="#0A58EB"/>
<path d="M136.457 2.563C138.447 2.23191 140.309 1.91553 142.178 1.62122C142.788 1.51086 143.406 1.44832 144.024 1.4336C145.356 1.33059 146.57 2.19512 146.912 3.48271C147.361 4.81077 146.875 6.27495 145.724 7.07325C145.525 7.21305 145.319 7.33813 145.084 7.48896C146.747 8.4381 147.482 9.24008 149.123 11.8778C148.494 11.9955 147.902 12.1132 147.306 12.2163C146.695 12.3229 146.085 12.4149 145.404 12.5253C144.562 11.4437 143.708 10.3548 142.862 9.26216C142.483 8.60364 141.663 8.34245 140.971 8.66251L141.655 13.1323L138.293 13.6951L136.457 2.563ZM143.701 5.17129C143.598 4.27366 143.197 3.79541 142.479 3.84324C141.699 3.81748 140.923 3.97935 140.217 4.31413L140.625 6.49567C141.872 6.30437 143.09 6.41842 143.701 5.17129Z" fill="#0A58EB"/>
<path d="M122.91 10.2201C122.929 6.39407 126.427 4.78642 129.348 4.71284C132.986 4.62087 134.752 7.87296 134.855 11.1214C134.966 14.7266 131.842 16.5035 128.329 16.6212C124.967 16.7353 123.079 13.5641 122.91 10.2201ZM131.5 11.5959C131.452 10.4261 131.07 9.29299 130.4 8.33281C129.79 7.51243 128.704 7.21077 127.759 7.60073C126.817 7.89871 126.195 8.79267 126.239 9.77859C126.287 10.9889 126.71 12.1551 127.45 13.1116C128.046 13.9026 129.109 14.1674 130.007 13.7554C130.959 13.4869 131.585 12.5819 131.5 11.5959Z" fill="#0A58EB"/>
<path d="M206.772 19.014C206.643 21.4678 205.253 23.6788 203.097 24.856C201.979 25.4446 200.665 25.5366 199.477 25.1135C198.105 24.6941 196.872 23.9105 195.909 22.851C194.772 21.6591 194.341 19.9595 194.775 18.3665C195.129 16.8582 195.949 15.5044 197.119 14.4891C198.465 13.2309 200.411 12.852 202.129 13.5142C203.527 13.974 204.763 14.8238 205.694 15.9643C206.419 16.8141 206.802 17.8993 206.772 19.014ZM203.579 18.5799C203.579 16.9907 201.732 15.4345 200.187 16.3947C198.874 17.1746 198.009 18.5321 197.862 20.0515C197.7 21.6554 199.617 23.0203 201.007 22.2845C202.376 21.5009 203.321 20.1397 203.579 18.5799Z" fill="#0A58EB"/>
<path d="M72.891 106.739C70.0031 106.739 68.1563 105.359 67.5236 102.685C67.2808 101.732 67.1998 100.746 67.2844 99.764C67.5604 97.2734 68.8369 95.9049 71.2723 95.2905C72.295 95.0109 73.3619 94.9337 74.414 95.0624C76.327 95.25 77.9384 96.5671 78.4975 98.4065C78.9169 99.5837 79.0641 100.838 78.9243 102.082C78.7771 103.84 77.6698 105.371 76.0511 106.066C75.0652 106.54 73.9836 106.772 72.891 106.739ZM73.7334 98.3918C72.7438 98.366 71.7616 98.5904 70.8823 99.0466C70.084 99.5432 69.6757 100.485 69.856 101.408C69.9553 102.354 70.68 103.115 71.6181 103.259C72.7769 103.48 73.9726 103.336 75.0468 102.854C75.9297 102.508 76.4742 101.614 76.3785 100.669C76.3123 99.1864 75.4036 98.3991 73.7334 98.3918Z" fill="#0A58EB"/>
<path d="M244.883 82.5828C244.077 82.7189 243.371 82.8476 242.661 82.9507C241.145 83.1714 239.626 83.4031 238.106 83.5908C235.914 83.8667 233.563 82.8771 233.019 80.1731C232.791 79.1026 232.677 78.0137 232.677 76.921C232.614 75.284 233.651 73.8051 235.215 73.3121C236.363 72.9589 237.54 72.7051 238.732 72.5543C240.207 72.3115 241.693 72.1459 243.176 71.9473C243.603 73.0068 243.779 74.1509 243.687 75.2876C242.127 75.5157 240.546 75.7401 238.96 75.9719C238.272 76.0712 237.577 76.1227 236.903 76.2736C235.844 76.4134 235.097 77.3846 235.237 78.4441C235.266 78.6795 235.34 78.9039 235.454 79.1136C235.701 79.8347 236.418 80.2909 237.176 80.2026C238.121 80.1253 239.059 79.9965 240.001 79.8678C241.193 79.7059 242.385 79.5146 243.577 79.3528C243.845 79.3344 244.114 79.3344 244.386 79.3491L244.883 82.5828Z" fill="#0A58EB"/>
<path d="M231.962 57.0797L229.519 52.1832L227.448 53.2059L230.107 58.5991L227.952 59.699C227.849 59.574 227.757 59.4378 227.672 59.3017C226.355 56.6493 225.045 53.9968 223.662 51.2083L233.816 46.2051L237.932 54.5634L235.861 55.6118L233.212 50.3585L231.535 51.1715L233.93 56.0717L231.962 57.0797Z" fill="#0A58EB"/>
<path d="M229.214 44.5235L227.367 42.1801C227.974 40.7307 227.819 39.7705 226.929 39.2518C226.436 38.9648 226.215 39.0457 225.63 39.7815L226.12 41.2641C226.418 42.1654 226.771 43.052 226.999 43.968C227.367 45.1195 227.017 46.3777 226.112 47.1796C225.16 48.0883 223.773 48.3753 222.537 47.9228C222.055 47.7572 221.606 47.5071 221.209 47.187C219.925 46.1385 218.983 44.7332 218.501 43.1476C218.045 41.632 218.644 39.9949 219.972 39.1267L221.885 41.5363C221.374 42.2758 220.87 43.0226 221.297 43.9496C221.532 44.6229 222.117 45.1121 222.824 45.2188C223.806 44.8399 224.056 44.4426 223.813 43.5045C223.666 42.9416 223.375 42.4156 223.239 41.8527C222.989 40.944 222.816 40.0133 222.721 39.0752C222.588 37.2063 224.593 35.9445 226.267 36.397C226.661 36.4853 227.032 36.6435 227.371 36.8605C229.015 37.9936 230.152 39.7263 230.534 41.6871C230.722 42.6694 230.281 43.5523 229.214 44.5235Z" fill="#0A58EB"/>
<path d="M72.1069 110.129L73.1885 113.065C72.3681 113.679 71.923 114.411 72.3902 115.43C72.6624 116.026 72.8647 116.144 73.6814 116.118C74.2701 115.666 74.1082 115.025 74.1008 114.411C74.0493 113.285 74.064 112.156 74.1339 111.034C74.3915 108.345 77.6141 107.524 79.5345 108.992C79.9465 109.298 80.296 109.676 80.5719 110.107C81.5652 111.659 82.003 113.506 81.8117 115.342C81.6351 116.799 80.6234 117.59 79.2843 118.215L78.1733 115.283C79.9502 113.749 79.9281 112.211 78.1549 111.424C77.18 111.711 76.9924 111.902 76.9593 112.829C76.9335 113.558 77.0108 114.293 76.9777 115.022C76.9703 115.713 76.8931 116.405 76.7422 117.082C76.367 118.616 74.8219 119.558 73.2841 119.186C72.9273 119.098 72.5925 118.943 72.2908 118.73C71.8935 118.469 71.5551 118.13 71.2865 117.737C70.2675 116.243 69.8076 114.437 69.9842 112.634C70.1424 111.457 70.9701 110.475 72.1069 110.129Z" fill="#0A58EB"/>
<path d="M176.492 14.3787L173.056 13.7165C172.946 12.9955 172.857 12.3958 172.762 11.7667L168.866 11.0236L167.836 12.7416L164.484 12.0794L170.749 1.80078L174.425 2.49976C175.171 6.39564 175.826 10.2915 176.492 14.3787ZM172.501 9.31663C172.486 7.94075 172.265 6.57591 171.849 5.26256L169.992 8.79424L172.501 9.31663Z" fill="#0A58EB"/>
<path d="M83.8869 55.2105C83.2873 55.0707 82.6729 54.9787 82.088 54.7837C80.6679 54.3055 79.3435 53.5734 78.1847 52.6243C76.6654 51.5942 76.1282 49.6039 76.9266 47.9485C77.1767 47.3047 77.5152 46.694 77.9309 46.1422C78.7476 44.9649 80.2044 44.4094 81.5987 44.7405C83.5779 45.1452 85.4063 46.0759 86.8999 47.4371C88.342 48.5187 88.754 50.5016 87.86 52.0688C87.551 52.7273 87.1647 53.3453 86.7086 53.9119C86.0096 54.747 84.9758 55.2252 83.8869 55.2105ZM84.3136 52.3373C85.1193 52.3667 85.5608 52.1497 85.7705 51.642C86.0169 51.0828 85.8514 50.428 85.3658 50.0564C83.9936 48.8498 82.3639 47.9742 80.598 47.4923C80.0131 47.301 79.3767 47.5548 79.086 48.0993C78.8175 48.5555 78.8653 49.1294 79.2074 49.5304C79.3104 49.6812 79.4355 49.8136 79.579 49.9277C80.8445 50.9136 82.2609 51.6935 83.7692 52.238C83.9458 52.2895 84.1297 52.3226 84.3136 52.3373Z" fill="#0A58EB"/>
<path d="M235.208 67.5442V70.3585C233.365 70.8331 231.449 69.9318 230.636 68.2101C230.099 67.169 229.782 66.0249 229.709 64.855C229.539 62.9751 230.503 61.1798 232.162 60.2822C233.443 59.4839 234.933 59.0792 236.445 59.1234C237.706 59.1234 238.909 59.6605 239.748 60.6023C240.984 61.9818 241.628 63.7918 241.543 65.6423C241.47 67.0917 240.672 68.4051 239.424 69.1445L237.92 66.5436C238.06 66.3854 238.185 66.2566 238.299 66.1205C239.112 65.2266 239.045 63.847 238.155 63.034C237.681 62.5999 237.037 62.3975 236.397 62.4822C235.359 62.6771 234.355 63.0119 233.406 63.4754C232.556 63.847 232.122 64.7961 232.398 65.6827C232.541 66.5804 233.248 67.2794 234.145 67.4191C234.458 67.478 234.785 67.4927 235.208 67.5442Z" fill="#0A58EB"/>
<path d="M78.9083 65.241C76.8519 65.0239 74.8947 64.2624 73.2282 63.0373C72.1098 62.2611 71.5875 60.8779 71.9149 59.5572C72.0731 58.7736 72.3195 58.0121 72.6506 57.2873C73.2871 55.8195 74.8395 54.9733 76.4178 55.2345C78.3528 55.4111 80.2106 56.0843 81.8109 57.188C83.3413 58.0562 84.0145 59.9067 83.4002 61.5548C83.2641 62.0441 83.0838 62.526 82.8704 62.9858C82.1494 64.5493 80.8912 65.252 78.9083 65.241ZM79.6625 62.4009C80.5454 62.3935 81.0126 62.0992 81.215 61.5401C81.4173 61.0066 81.2223 60.4033 80.7477 60.0869C80.4167 59.8 80.0488 59.5608 79.6551 59.3732C78.7869 59.0017 77.893 58.6742 76.999 58.3615C76.5833 58.2217 76.1566 58.1261 75.7225 58.0672C75.0529 57.9422 74.3834 58.299 74.1148 58.9244C73.9014 59.4652 74.0633 59.9508 74.6666 60.4438C74.9131 60.6608 75.1927 60.8374 75.4944 60.9698C76.6127 61.4076 77.7385 61.8233 78.8715 62.2243C79.1327 62.3016 79.4013 62.3568 79.6735 62.3935L79.6625 62.4009Z" fill="#0A58EB"/>
<path d="M70.4698 83.8131L69.9511 86.6789C67.7254 86.2227 66.7321 85.0198 66.7873 82.8051C66.8094 81.8927 66.9382 80.9878 67.1736 80.1048C67.5746 78.4015 69.2816 77.342 70.9849 77.743C71.4411 77.8497 71.8678 78.0557 72.232 78.3464C73.0597 79.0122 73.7403 79.84 74.2333 80.7817C74.6564 81.455 75.0794 82.1282 75.5687 82.9118C76.0985 82.0877 75.8593 81.3041 75.9771 80.5831C76.0985 79.8326 76.1463 79.0711 76.2419 78.1734L78.692 78.3059C78.4051 81.4844 78.1329 84.5268 77.8533 87.6869C76.7717 87.4625 75.7821 86.9217 75.0058 86.1344C74.2774 85.3214 73.6447 84.4201 72.9972 83.5409C72.6072 83.0111 72.2688 82.4446 71.9009 81.9038C71.7795 81.7235 71.6397 81.5506 71.4889 81.3924C71.0916 80.8921 70.4331 80.6751 69.815 80.8369C69.2816 81.0282 68.9174 81.5212 68.899 82.0877C68.8769 82.7315 69.2742 83.3165 69.8812 83.5298C70.0468 83.596 70.205 83.6807 70.4698 83.8131Z" fill="#0A58EB"/>
<path d="M119.887 12.9279L120.899 14.8446L117.021 16.9415L119.133 21.0324L116.116 22.6437L110.859 12.6373L118.46 8.64941L119.586 10.6912L115.061 13.1118L115.98 14.9439L119.887 12.9279Z" fill="#0A58EB"/>
<path d="M230.827 124.382L226.504 122.491L227.865 119.371L232.243 121.229L239.991 119.857L238.478 123.289L234.016 123.9L236.602 127.571L235.109 131.04L230.827 124.382Z" fill="#0A58EB"/>
<path d="M182.505 16.5357L179.286 15.4394L181.986 7.44894C180.978 6.77571 179.771 6.67638 178.66 6.09145L179.528 3.58984L189.553 7.00012L188.685 9.54955L185.282 8.4459L182.505 16.5357Z" fill="#0A58EB"/>
<path d="M231.577 107.905L239.85 110.069L240.814 106.629L243.408 107.309L240.741 117.518L238.11 116.878L238.993 113.409L230.73 111.205L231.577 107.905Z" fill="#0A58EB"/>
<path d="M70.3529 74.9299L67.9102 74.3487L69.9078 65.479L71.8907 65.9131C73.719 68.904 76.6216 71.0892 80.0025 72.02L79.3476 74.9373C76.2905 73.9845 73.6197 72.0751 71.7251 69.4889C71.1071 71.3431 70.9268 73.1163 70.3529 74.9299Z" fill="#0A58EB"/>
<path d="M86.7519 39.7409C86.5348 40.8299 86.3546 41.7569 86.1596 42.6803C86.0971 42.8679 86.0124 43.0519 85.9131 43.2248L83.9633 41.7974C84.5041 40.1382 84.7285 38.4938 83.8125 36.8788L85.3319 34.8076L94.5694 41.6171L92.7521 44.1261L86.7519 39.7409Z" fill="#0A58EB"/>
<path d="M103.308 32.0613L100.949 34.585L93.1797 26.4143L95.5599 23.9385L103.308 32.0613Z" fill="#0A58EB"/>
<path d="M190.637 20.0463L187.547 18.56L192.362 8.3623L195.482 9.81176L190.637 20.0463Z" fill="#0A58EB"/>
<path d="M83.6775 119.012L85.0313 122.165L74.668 126.642L73.3105 123.493L83.6775 119.012Z" fill="#0A58EB"/>
<path d="M232.664 102.541L233.153 99.2266C236.876 99.6754 240.518 100.235 244.289 100.801L243.829 104.13C240.066 103.667 236.409 103.13 232.664 102.541Z" fill="#0A58EB"/>
<path d="M204.83 90.2782C204.863 93.2176 204.208 96.1276 202.925 98.769C201.276 101.995 198.506 104.508 195.133 105.832C192.683 106.804 190.085 107.344 187.451 107.44C184.383 107.683 181.297 107.348 178.354 106.458C171.986 104.416 168.171 100.123 167.199 93.4347C166.717 90.3886 166.912 87.2763 167.77 84.3149C169.061 79.7973 172.42 76.1663 176.823 74.5218C180.598 73.0871 184.666 72.5867 188.676 73.0687C190.979 73.2232 193.238 73.7713 195.357 74.6837C200.379 76.7549 203.885 81.3902 204.51 86.787C204.679 87.9422 204.727 89.1157 204.83 90.2782ZM192.322 90.2782C192.219 88.7147 192.168 87.1402 191.995 85.5841C191.866 83.8293 191.391 82.1223 190.597 80.5514C189.718 78.804 187.9 77.7261 185.947 77.796C183.956 77.6966 182.088 78.7672 181.168 80.5367C180.52 81.7691 180.101 83.1045 179.924 84.4841C179.409 87.8833 179.347 91.3341 179.741 94.748C179.862 96.3152 180.237 97.8566 180.852 99.3024C182.036 102.073 185.248 103.36 188.018 102.176C189.236 101.653 190.222 100.708 190.795 99.5158C191.134 98.7874 191.399 98.0295 191.579 97.246C192.076 94.954 192.322 92.6217 192.322 90.2782Z" fill="#0A58EB"/>
<path d="M157.061 84.9724C156.844 84.3727 156.678 83.8908 156.501 83.4125C155.302 80.1899 152.889 78.5491 149.556 78.1923C148.287 77.9973 146.988 78.0672 145.748 78.3983C144.935 78.6337 144.203 79.0826 143.626 79.7043C142.437 81.0176 142.566 82.4965 144.074 83.4162C144.954 83.9349 145.903 84.3286 146.889 84.5861C148.964 85.1563 151.086 85.5683 153.168 86.1275C155.589 86.7125 157.899 87.6763 160.018 88.986C162.296 90.4023 163.756 92.8267 163.94 95.5012C164.326 98.2162 163.565 100.968 161.836 103.098C160.522 104.639 158.815 105.795 156.895 106.438C154.327 107.303 151.609 107.649 148.905 107.454C145.723 107.281 142.607 106.475 139.737 105.085C139.612 105.026 139.472 104.989 139.259 104.915L138.037 106.633H133.726V94.7102C134.469 94.5962 135.227 94.5668 135.977 94.6183C136.706 94.5999 137.434 94.6146 138.254 94.6146C138.405 95.0082 138.538 95.3761 138.689 95.7366C140.19 99.3125 142.71 101.707 146.598 102.454C147.889 102.752 149.232 102.723 150.509 102.37C151.208 102.164 151.859 101.832 152.436 101.387C153.551 100.593 153.812 99.0439 153.021 97.9292C152.859 97.7011 152.661 97.5025 152.433 97.3406C151.495 96.649 150.453 96.1045 149.35 95.7293C147.212 94.9862 145.009 94.4417 142.853 93.7537C141.348 93.3012 139.869 92.7678 138.424 92.1571C135.676 90.9358 133.663 88.9492 133.053 85.9289C132.078 81.1059 134.105 76.912 138.527 74.5797C140.421 73.6121 142.507 73.0714 144.63 72.9867C148.658 72.6888 152.701 73.4208 156.369 75.1131C156.501 75.1756 156.641 75.2198 156.88 75.3118L157.774 73.8182H162.314V84.9466C161.472 84.954 160.611 84.9687 159.754 84.9724C158.871 84.976 157.995 84.9724 157.061 84.9724Z" fill="#0A58EB"/>
<path d="M129.869 101.957V106.442H110.691V101.957C111.284 101.957 111.861 101.968 112.431 101.953C112.832 101.953 113.233 101.92 113.631 101.854C114.238 101.795 114.723 101.317 114.793 100.71C114.882 100.243 114.94 99.7719 114.963 99.301C114.974 93.231 114.974 87.1572 114.963 81.0871C114.959 78.9387 114.447 78.4494 112.299 78.4126C111.791 78.4053 111.28 78.4126 110.691 78.4126V73.9502H129.737C129.987 75.3997 130.009 76.8822 129.799 78.339C129.534 78.3648 129.255 78.3979 128.972 78.4163C128.688 78.4347 128.387 78.4163 128.092 78.4237C126.135 78.4936 125.672 78.9129 125.672 80.8443C125.653 87.0615 125.653 93.2788 125.672 99.496C125.679 101.49 126.146 101.92 128.151 101.957C128.696 101.965 129.236 101.957 129.869 101.957Z" fill="#0A58EB"/>
</g>
<defs>
<clipPath id="clip0_982_2621">
<rect width="310" height="157" fill="white" transform="translate(0.890625)"/>
</clipPath>
</defs>
</svg>
