<svg width="175" height="150" viewBox="0 0 175 150" fill="none" xmlns="http://www.w3.org/2000/svg">
<path d="M149.867 74.9304H131.103C130.252 74.9304 129.561 75.615 129.561 76.4575C128.711 106.366 102.982 130.167 72.0449 128.114C43.6589 126.165 21.3328 101.733 22.0238 73.614C22.1302 68.6116 22.9807 63.8199 24.3628 59.2387C26.6485 51.9195 30.4758 45.2847 35.4726 39.7031C45.3599 28.6452 59.7124 21.6945 75.7659 21.6945C91.8194 21.6945 101.972 26.8022 111.434 35.122C113.082 36.5437 114.624 38.0707 116.059 39.7031L131.581 24.3274C130.093 22.7477 128.551 21.2206 126.956 19.7462C113.454 7.47725 95.4872 0 75.7127 0C55.9382 0 33.7184 9.37289 19.8444 24.3274C14.8476 29.751 10.6482 35.8592 7.40557 42.5466C2.03668 53.6045 -0.621187 66.1368 0.123015 79.4062C2.24931 116.634 32.6021 147.123 70.1312 149.808C113.933 152.862 150.452 119.057 151.356 76.6154C151.356 75.7203 150.611 74.9831 149.761 74.9831L149.867 74.9304Z" fill="url(#paint0_linear_1490_11558)"/>
<path d="M173.417 9.68896C174.799 9.68896 175.543 11.374 174.533 12.3745L144.074 42.5467L127.17 59.2389L91.1823 94.8875L88.3649 97.6782C81.4545 104.576 70.1851 104.576 63.2215 97.6782L60.351 94.8348L34.5166 69.2437L36.2708 67.506C43.8191 60.0288 56.0453 60.0288 63.5405 67.506L75.7667 79.617L116.06 39.7033L145.881 10.1629C146.2 9.84695 146.572 9.68896 146.997 9.68896H173.363H173.417Z" fill="url(#paint1_linear_1490_11558)"/>
<path opacity="0.1" d="M131.627 24.2745L116.105 39.6502C114.67 38.0179 113.128 36.4908 111.48 35.0691L127.002 19.6934C128.597 21.1677 130.139 22.6948 131.627 24.2745Z" fill="#181919"/>
<defs>
<linearGradient id="paint0_linear_1490_11558" x1="75.819" y1="-1.5797" x2="75.819" y2="143.542" gradientUnits="userSpaceOnUse">
<stop stop-color="#0A58EB"/>
</linearGradient>
<linearGradient id="paint1_linear_1490_11558" x1="104.791" y1="0.526708" x2="104.791" y2="145.648" gradientUnits="userSpaceOnUse">
<stop stop-color="#0A58EB"/>
</linearGradient>
</defs>
</svg>
