<svg width="1412" height="285" viewBox="0 0 1412 285" fill="none" xmlns="http://www.w3.org/2000/svg">
<path d="M446.631 231.1C420.831 231.1 399.431 222.6 382.531 205.5C365.531 188.4 357.031 167.4 357.031 142.2C357.031 117 365.531 95.9998 382.531 78.8998C399.531 61.8998 420.831 53.2998 446.631 53.2998C472.431 53.2998 476.431 56.9998 489.631 64.2998C502.731 71.5998 513.031 81.5998 520.331 94.1998L495.831 108.4C491.231 99.8998 484.631 93.1998 475.931 88.1998C467.231 83.1998 457.431 80.6998 446.731 80.6998C428.431 80.6998 413.631 86.4998 402.331 98.0998C391.031 109.7 385.331 124.4 385.331 142.1C385.331 159.8 391.031 174.6 402.331 186.1C413.631 197.6 428.431 203.5 446.731 203.5C465.031 203.5 467.331 201 476.131 196C484.931 191 491.531 184.3 495.931 175.8L520.431 189.7C513.231 202.3 503.131 212.3 489.931 219.7C476.731 227.1 462.431 230.8 446.731 230.8L446.631 231.1Z" fill="#010233"/>
<path d="M599.331 231.1C581.331 231.1 566.131 224.9 553.531 212.5C540.931 200.1 534.731 184.8 534.731 166.7C534.731 148.6 541.031 133.3 553.531 120.9C566.031 108.5 581.331 102.3 599.331 102.3C617.331 102.3 632.731 108.5 645.231 120.9C657.731 133.3 663.931 148.6 663.931 166.7C663.931 184.8 657.731 200.1 645.231 212.5C632.731 224.9 617.431 231.1 599.331 231.1ZM572.131 194.4C579.431 201.7 588.531 205.4 599.331 205.4C610.131 205.4 619.131 201.7 626.531 194.4C633.831 187.1 637.531 177.8 637.531 166.7C637.531 155.6 633.831 146.4 626.531 139C619.231 131.6 610.131 128 599.331 128C588.531 128 579.531 131.7 572.131 139C564.831 146.3 561.131 155.6 561.131 166.7C561.131 177.8 564.831 187 572.131 194.4Z" fill="#010233"/>
<path d="M821.531 102.4C835.431 102.4 846.531 106.9 855.031 115.9C863.531 124.9 867.731 136.9 867.731 152.1V228H841.331V153.8C841.331 145.3 839.231 138.8 834.931 134.1C830.731 129.4 824.931 127.1 817.531 127.1C810.131 127.1 802.831 129.8 798.031 135.2C793.231 140.6 790.831 148.7 790.831 159.4V227.9H764.431V153.7C764.431 145.2 762.431 138.7 758.431 134C754.431 129.3 748.731 127 741.431 127C734.131 127 726.931 129.7 721.831 135.2C716.731 140.7 714.231 148.7 714.231 159.3V227.8H687.831V105.4H714.231V120.1C722.031 108.2 733.731 102.2 749.231 102.2C764.731 102.2 776.431 108.6 784.031 121.5C792.231 108.6 804.731 102.2 821.531 102.2V102.4Z" fill="#010233"/>
<path d="M965.331 102.4C982.131 102.4 996.531 108.6 1008.43 121.1C1020.33 133.6 1026.33 148.8 1026.33 166.7C1026.33 184.6 1020.33 200.1 1008.43 212.5C996.531 224.9 982.131 231.1 965.331 231.1C948.531 231.1 932.431 224.3 922.531 210.5V276.8H896.131V105.5H922.531V123.1C932.431 109.2 946.731 102.3 965.331 102.3V102.4ZM933.531 194.8C940.831 202.2 950.131 205.9 961.231 205.9C972.331 205.9 981.531 202.2 988.931 194.8C996.231 187.4 999.931 178 999.931 166.8C999.931 155.6 996.231 146.2 988.931 138.8C981.631 131.4 972.331 127.7 961.231 127.7C950.131 127.7 940.931 131.4 933.531 138.8C926.231 146.2 922.531 155.6 922.531 166.8C922.531 178 926.231 187.4 933.531 194.8Z" fill="#010233"/>
<path d="M1050.23 228V49.3999H1076.63V228H1050.23Z" fill="#010233"/>
<path d="M1109.03 166.3V140.8H1199.53V166.3H1109.03Z" fill="#010233"/>
<path d="M1338.03 228L1325.93 193.5H1253.13L1241.13 228H1210.53L1272.73 56.7H1306.53L1368.43 228H1338.13H1338.03ZM1262.43 167H1316.73L1289.63 89.7L1262.43 167Z" fill="#010233"/>
<path d="M1411.43 56.5999H1385.03V227.9H1411.43V56.5999Z" fill="#010233"/>
<path d="M281.931 142.3H246.631C245.031 142.3 243.731 143.6 243.731 145.2C242.131 202 193.731 247.2 135.531 243.3C82.1314 239.6 40.1314 193.2 41.4314 139.8C41.6314 130.3 43.2314 121.2 45.8314 112.5C50.1314 98.6 57.3314 86 66.7314 75.4C85.3314 54.4 112.331 41.2 142.531 41.2C172.731 41.2 191.831 50.9 209.631 66.7C212.731 69.4 215.631 72.3 218.331 75.4L247.531 46.2C244.731 43.2 241.831 40.3 238.831 37.5C213.431 14.2 179.631 0 142.431 0C105.231 0 63.4314 17.8 37.3314 46.2C27.9314 56.5 20.0314 68.1 13.9314 80.8C3.83143 101.8 -1.16858 125.6 0.231417 150.8C4.23142 221.5 61.3314 279.4 131.931 284.5C214.331 290.3 283.031 226.1 284.731 145.5C284.731 143.8 283.331 142.4 281.731 142.4L281.931 142.3Z" fill="url(#paint0_linear_1474_7037)"/>
<path d="M326.232 18.3999C328.832 18.3999 330.232 21.5999 328.332 23.4999L271.032 80.7999L239.232 112.5L171.532 180.2L166.232 185.5C153.232 198.6 132.032 198.6 118.932 185.5L113.532 180.1L64.9316 131.5L68.2316 128.2C82.4316 114 105.432 114 119.532 128.2L142.532 151.2L218.332 75.3999L274.432 19.2999C275.032 18.6999 275.732 18.3999 276.532 18.3999H326.132H326.232Z" fill="url(#paint1_linear_1474_7037)"/>
<path opacity="0.1" d="M247.631 46.0999L218.431 75.2999C215.731 72.1999 212.831 69.2999 209.731 66.5999L238.931 37.3999C241.931 40.1999 244.831 43.0999 247.631 46.0999Z" fill="#181919"/>
<defs>
<linearGradient id="paint0_linear_1474_7037" x1="142.631" y1="-3" x2="142.631" y2="272.6" gradientUnits="userSpaceOnUse">
<stop stop-color="#0A58EB"/>
</linearGradient>
<linearGradient id="paint1_linear_1474_7037" x1="197.132" y1="0.999906" x2="197.132" y2="276.6" gradientUnits="userSpaceOnUse">
<stop stop-color="#0A58EB"/>
</linearGradient>
</defs>
</svg>
